<svg width="334" height="104" viewBox="0 0 334 104" fill="none" xmlns="http://www.w3.org/2000/svg">
<g filter="url(#filter0_d_330_362)">
<path d="M116.59 50.09V46.73H120.02V36.93H116.59V33.5H105.46V50.09H116.59ZM136.61 30.49V53.17H133.39V57.23H129.82V60.8H126.04V64.23H105.53V78.93H102.17V82.36H92.44V78.93H89.08V22.79H92.44V19.43H126.46V22.79H130.24V26.36H133.81V30.49H136.61ZM170.335 61.99H159.275V64.37H156.755V67.8H159.275V70.18H170.335V61.99ZM185.455 38.89V79.28H182.725V82.36H150.105V79.63H146.955V76.62H143.945V73.26H141.215V59.19H143.945V55.83H146.955V52.82H150.105V50.09H170.335V45.68H147.515V42.6H144.645V35.25H147.515V32.24H179.155V35.32H182.235V38.89H185.455ZM225.927 73.96H223.127V76.76H220.677V79.56H217.947V82.36H204.787V79.56H201.777V76.76H198.907V73.75H196.177V70.67H193.447V67.52H190.717V34.97H193.727V32.17H203.317V34.97H206.117V59.4H208.287V62.2H210.107V64.65H212.837V62.2H214.797V59.4H216.967V34.97H219.837V32.17H229.357V34.97H232.227V59.4H234.397V62.2H236.217V64.65H238.947V62.2H240.837V59.4H242.937V34.97H245.807V32.17H255.397V34.97H258.337V67.52H255.607V70.67H252.947V73.75H250.217V76.76H247.277V79.56H244.337V82.36H231.177V79.56H228.447V76.76H225.927V73.96ZM266.812 82.36V79.56H264.012V21.39H266.812V18.59H277.522V21.39H280.322V79.56H277.522V82.36H266.812ZM314.292 58.42V35.04H317.092V32.24H326.612V35.04H329.412V85.58H326.612V89.01H323.462V92.3H320.242V95.03H291.822V92.3H288.812V84.46H291.822V81.59H310.582V78.72H313.942V74.52H296.512V71.79H292.872V68.92H289.442V65.77H286.222V34.9H289.092V32.24H298.822V34.9H301.622V58.42H304.142V61.43H311.772V58.42H314.292Z" fill="#BE96D7"/>
</g>
<g filter="url(#filter1_d_330_362)">
<rect x="16.6787" y="56.5714" width="5.07143" height="3.38095" fill="#BE96D7"/>
<rect x="14.1431" y="59.1071" width="5.07143" height="3.38095" fill="#BE96D7"/>
<rect x="11.6069" y="61.6429" width="5.07143" height="3.38095" fill="#BE96D7"/>
<rect x="11.6069" y="70.9405" width="5.07143" height="3.38095" fill="#BE96D7"/>
<rect x="14.1431" y="73.4762" width="5.07143" height="3.38095" fill="#BE96D7"/>
<rect x="19.2144" y="76.0119" width="8.45238" height="3.38095" fill="#BE96D7"/>
<rect x="26.8213" y="78.5476" width="8.45238" height="3.38095" fill="#BE96D7"/>
<rect x="31.8931" y="81.0833" width="8.45238" height="3.38095" fill="#BE96D7"/>
<rect x="46.2617" y="81.0833" width="8.45238" height="3.38095" fill="#BE96D7"/>
<rect x="48.7979" y="71.7857" width="8.45238" height="10.1429" fill="#BE96D7"/>
<rect x="46.2617" y="64.1786" width="8.45238" height="10.1429" fill="#BE96D7"/>
<rect x="43.7261" y="59.1071" width="8.45238" height="10.1429" fill="#BE96D7"/>
<rect x="41.1904" y="54.0357" width="8.45238" height="10.1429" fill="#BE96D7"/>
<rect x="38.6548" y="48.9643" width="8.45238" height="10.1429" fill="#BE96D7"/>
<rect x="34.4287" y="46.4286" width="7.60714" height="10.1429" fill="#BE96D7"/>
<rect x="27.6665" y="75.1667" width="21.9762" height="5.91667" fill="#BE96D7"/>
<rect x="33.5835" y="50.6548" width="7.60714" height="10.1429" fill="#BE96D7"/>
<rect x="26.8213" y="48.9643" width="7.60714" height="10.1429" fill="#BE96D7"/>
<rect x="8.22607" y="41.3571" width="7.60714" height="10.1429" fill="#BE96D7"/>
<rect x="6.53564" y="38.8214" width="7.60714" height="10.1429" fill="#BE96D7"/>
<rect x="4" y="36.2857" width="7.60714" height="7.60714" fill="#BE96D7"/>
<rect x="6.53564" y="31.2143" width="7.60714" height="7.60714" fill="#BE96D7"/>
<rect x="9.07129" y="28.6786" width="10.1429" height="7.60714" fill="#BE96D7"/>
<rect x="14.1431" y="31.2143" width="7.60714" height="10.1429" fill="#BE96D7"/>
<rect x="16.6787" y="33.75" width="7.60714" height="15.2143" fill="#BE96D7"/>
<rect x="11.6069" y="26.1429" width="5.07143" height="2.53571" fill="#BE96D7"/>
<rect x="21.75" y="38.8214" width="5.07143" height="7.60714" fill="#BE96D7"/>
<rect x="29.3569" y="18.5357" width="10.1429" height="25.3571" fill="#BE96D7"/>
<rect x="31.8931" y="16" width="7.60714" height="3.38095" fill="#BE96D7"/>
<rect x="34.4287" y="18.5357" width="7.60714" height="3.38095" fill="#BE96D7"/>
<rect x="44.5713" y="23.6071" width="2.53571" height="7.60714" fill="#BE96D7"/>
<rect x="39.5" y="33.75" width="2.53571" height="7.60714" fill="#BE96D7"/>
<rect x="42.0356" y="33.75" width="2.53571" height="5.07143" fill="#BE96D7"/>
<rect x="24.2856" y="26.1429" width="2.53571" height="5.07143" fill="#BE96D7"/>
<rect x="26.8213" y="21.0714" width="17.75" height="15.2143" fill="#BE96D7"/>
<rect x="49.6431" y="31.2143" width="12.6786" height="15.2143" fill="#BE96D7"/>
<rect x="52.1787" y="26.1429" width="15.2143" height="15.2143" fill="#BE96D7"/>
<rect x="57.25" y="51.5" width="15.2143" height="15.2143" fill="#BE96D7"/>
<rect x="72.4644" y="51.5" width="2.53571" height="12.6786" fill="#BE96D7"/>
<rect x="54.7144" y="56.5714" width="2.53571" height="5.91667" fill="#BE96D7"/>
<rect x="57.25" y="66.7143" width="10.1429" height="2.53571" fill="#BE96D7"/>
<rect x="59.7856" y="48.9643" width="12.6786" height="2.53571" fill="#BE96D7"/>
<rect x="54.7144" y="23.6071" width="10.1429" height="2.53571" fill="#BE96D7"/>
<rect x="47.1069" y="36.2857" width="2.53571" height="10.1429" fill="#BE96D7"/>
<rect x="67.3931" y="28.6786" width="2.53571" height="10.1429" fill="#BE96D7"/>
<rect x="62.3213" y="33.75" width="2.53571" height="10.1429" fill="#BE96D7"/>
<rect x="49.6431" y="38.8214" width="7.60714" height="10.1429" fill="#BE96D7"/>
<rect x="14.1431" y="41.3571" width="7.60714" height="10.1429" fill="#BE96D7"/>
<rect x="24.2856" y="51.5" width="7.60714" height="10.1429" fill="#BE96D7"/>
<rect x="21.75" y="54.0357" width="7.60714" height="10.1429" fill="#BE96D7"/>
<rect x="14.1431" y="59.1071" width="31.2738" height="12.6786" fill="#BE96D7"/>
<rect x="16.6787" y="64.1786" width="36.3452" height="12.6786" fill="#BE96D7"/>
<rect x="36.9644" y="83.619" width="15.2143" height="3.38095" fill="#BE96D7"/>
<rect x="37.8096" y="80.2381" width="15.2143" height="3.38095" fill="#BE96D7"/>
<rect x="9.07129" y="64.1786" width="5.07143" height="7.60714" fill="#BE96D7"/>
</g>
<defs>
<filter id="filter0_d_330_362" x="85.0801" y="18.59" width="248.332" height="84.44" filterUnits="userSpaceOnUse" color-interpolation-filters="sRGB">
<feFlood flood-opacity="0" result="BackgroundImageFix"/>
<feColorMatrix in="SourceAlpha" type="matrix" values="0 0 0 0 0 0 0 0 0 0 0 0 0 0 0 0 0 0 127 0" result="hardAlpha"/>
<feOffset dy="4"/>
<feGaussianBlur stdDeviation="2"/>
<feComposite in2="hardAlpha" operator="out"/>
<feColorMatrix type="matrix" values="0 0 0 0 0 0 0 0 0 0 0 0 0 0 0 0 0 0 0.25 0"/>
<feBlend mode="normal" in2="BackgroundImageFix" result="effect1_dropShadow_330_362"/>
<feBlend mode="normal" in="SourceGraphic" in2="effect1_dropShadow_330_362" result="shape"/>
</filter>
<filter id="filter1_d_330_362" x="0" y="16" width="79" height="79" filterUnits="userSpaceOnUse" color-interpolation-filters="sRGB">
<feFlood flood-opacity="0" result="BackgroundImageFix"/>
<feColorMatrix in="SourceAlpha" type="matrix" values="0 0 0 0 0 0 0 0 0 0 0 0 0 0 0 0 0 0 127 0" result="hardAlpha"/>
<feOffset dy="4"/>
<feGaussianBlur stdDeviation="2"/>
<feComposite in2="hardAlpha" operator="out"/>
<feColorMatrix type="matrix" values="0 0 0 0 0 0 0 0 0 0 0 0 0 0 0 0 0 0 0.25 0"/>
<feBlend mode="normal" in2="BackgroundImageFix" result="effect1_dropShadow_330_362"/>
<feBlend mode="normal" in="SourceGraphic" in2="effect1_dropShadow_330_362" result="shape"/>
</filter>
</defs>
</svg>
