<svg width="91" height="281" viewBox="0 0 91 281" fill="none" xmlns="http://www.w3.org/2000/svg">
<rect x="61" width="18" height="3" fill="black"/>
<rect x="57" y="3" width="4" height="50" fill="black"/>
<rect y="45" width="4" height="38" fill="black"/>
<rect x="87" y="45" width="4" height="38" fill="black"/>
<rect x="4" y="37" width="4" height="8" fill="black"/>
<rect x="8" y="34" width="3" height="8" fill="black"/>
<rect x="83" y="37" width="4" height="8" fill="black"/>
<rect x="61" y="49" width="4" height="4" fill="black"/>
<rect x="57" y="60" width="7" height="4" fill="black"/>
<rect x="64" y="52" width="4" height="8" fill="black"/>
<rect x="53" y="52" width="4" height="8" fill="black"/>
<rect x="11" y="30" width="69" height="4" fill="black"/>
<rect x="34" y="34" width="23" height="3" fill="#E87779"/>
<rect x="38" y="37" width="19" height="8" fill="#D01216"/>
<rect x="61" y="37" width="22" height="12" fill="#D01216"/>
<rect x="50" y="64" width="22" height="8" fill="#D01216"/>
<rect x="46" y="72" width="41" height="7" fill="#A00C0C"/>
<rect x="72" y="68" width="15" height="5" fill="#A00C0C"/>
<rect x="79" y="64" width="8" height="4" fill="#A00C0C"/>
<rect x="83" y="57" width="4" height="8" fill="#A00C0C"/>
<rect x="68" y="49" width="19" height="8" fill="#D01216"/>
<rect x="68" y="57" width="15" height="7" fill="#D01216"/>
<rect x="83" y="45" width="4" height="4" fill="#D01216"/>
<rect x="65" y="48" width="4" height="4" fill="#D01216"/>
<rect x="42" y="71" width="4" height="4" fill="#D01216"/>
<rect x="53" y="60" width="4" height="4" fill="#D01216"/>
<rect x="64" y="60" width="4" height="4" fill="#D01216"/>
<rect x="30" y="34" width="4" height="3" fill="#520104"/>
<rect x="26" y="34" width="4" height="3" fill="#760605"/>
<rect x="11" y="34" width="4" height="3" fill="white"/>
<rect x="4" y="75" width="7" height="4" fill="#A10707"/>
<rect x="27" y="45" width="7" height="15" fill="#A10707"/>
<rect x="19" y="45" width="8" height="4" fill="#A10707"/>
<rect x="15" y="34" width="11" height="3" fill="#A10707"/>
<rect x="12" y="37" width="7" height="5" fill="#A10707"/>
<rect x="8" y="71" width="7" height="4" fill="#A10707"/>
<rect x="8" y="53" width="18" height="19" fill="#A10707"/>
<rect x="23" y="37" width="7" height="31" fill="#A10707"/>
<rect x="30" y="37" width="4" height="8" fill="#760605"/>
<rect x="8" y="37" width="4" height="8" fill="white"/>
<rect x="12" y="41" width="3" height="8" fill="#A10707"/>
<rect x="8" y="45" width="7" height="10" fill="#A10707"/>
<rect x="13" y="49" width="6" height="10" fill="#A10707"/>
<rect x="34" y="45" width="4" height="34" fill="#760605"/>
<rect x="4" y="45" width="4" height="30" fill="white"/>
<rect x="30" y="60" width="4" height="19" fill="#760605"/>
<rect x="26" y="68" width="4" height="11" fill="#760605"/>
<rect x="11" y="75" width="4" height="4" fill="#760605"/>
<rect x="19" y="37" width="4" height="8" fill="#062448"/>
<rect x="19" y="49" width="4" height="4" fill="#062448"/>
<rect x="15" y="42" width="4" height="7" fill="#062448"/>
<rect x="15" y="72" width="11" height="7" fill="#760605"/>
<rect x="34" y="37" width="4" height="8" fill="#520104"/>
<rect x="38" y="45" width="4" height="34" fill="#520104"/>
<rect x="42" y="75" width="4" height="4" fill="#A00C0C"/>
<rect x="72" y="64" width="7" height="4" fill="#D01216"/>
<rect x="42" y="45" width="15" height="7" fill="#D01216"/>
<rect x="42" y="52" width="11" height="20" fill="#D01216"/>
<rect x="61" y="34" width="19" height="3" fill="#E87779"/>
<rect x="80" y="34" width="3" height="3" fill="black"/>
<rect y="79" width="91" height="4" fill="black"/>
<rect x="87" y="45" width="4" height="38" fill="black"/>
<rect x="45" y="83" width="4" height="198" fill="black"/>
<rect x="49" y="83" width="4" height="198" fill="#6A3C08"/>
<rect x="53" y="83" width="4" height="198" fill="#8F5102"/>
<rect x="57" y="83" width="4" height="198" fill="black"/>
<rect x="79" y="3" width="4" height="15" fill="black"/>
<rect x="61" y="15" width="7" height="3" fill="black"/>
<rect x="72" y="15" width="7" height="3" fill="black"/>
<rect x="68" y="3" width="11" height="3" fill="#0D2448"/>
<rect x="61" y="3" width="7" height="12" fill="#05327A"/>
<rect x="68" y="6" width="8" height="6" fill="#05327A"/>
<rect x="72" y="11" width="4" height="4" fill="#05327A"/>
<rect x="76" y="6" width="3" height="9" fill="#0D2448"/>
<rect x="68" y="12" width="4" height="3" fill="black"/>
</svg>
