<svg width="84" height="84" viewBox="0 0 84 84" fill="none" xmlns="http://www.w3.org/2000/svg">
<rect x="15" y="48" width="6" height="4" fill="#BE96D7"/>
<rect x="12" y="51" width="6" height="4" fill="#BE96D7"/>
<rect x="9" y="54" width="6" height="4" fill="#BE96D7"/>
<rect x="9" y="65" width="6" height="4" fill="#BE96D7"/>
<rect x="12" y="68" width="6" height="4" fill="#BE96D7"/>
<rect x="18" y="71" width="10" height="4" fill="#BE96D7"/>
<rect x="27" y="74" width="10" height="4" fill="#BE96D7"/>
<rect x="33" y="77" width="10" height="4" fill="#BE96D7"/>
<rect x="50" y="77" width="10" height="4" fill="#BE96D7"/>
<rect x="53" y="66" width="10" height="12" fill="#BE96D7"/>
<rect x="50" y="57" width="10" height="12" fill="#BE96D7"/>
<rect x="47" y="51" width="10" height="12" fill="#BE96D7"/>
<rect x="44" y="45" width="10" height="12" fill="#BE96D7"/>
<rect x="41" y="39" width="10" height="12" fill="#BE96D7"/>
<rect x="36" y="36" width="9" height="12" fill="#BE96D7"/>
<rect x="28" y="70" width="26" height="7" fill="#BE96D7"/>
<rect x="35" y="41" width="9" height="12" fill="#BE96D7"/>
<rect x="27" y="39" width="9" height="12" fill="#BE96D7"/>
<rect x="5" y="30" width="9" height="12" fill="#BE96D7"/>
<rect x="3" y="27" width="9" height="12" fill="#BE96D7"/>
<rect y="24" width="9" height="9" fill="#BE96D7"/>
<rect x="3" y="18" width="9" height="9" fill="#BE96D7"/>
<rect x="6" y="15" width="12" height="9" fill="#BE96D7"/>
<rect x="12" y="18" width="9" height="12" fill="#BE96D7"/>
<rect x="15" y="21" width="9" height="18" fill="#BE96D7"/>
<rect x="9" y="12" width="6" height="3" fill="#BE96D7"/>
<rect x="21" y="27" width="6" height="9" fill="#BE96D7"/>
<rect x="30" y="3" width="12" height="30" fill="#BE96D7"/>
<rect x="33" width="9" height="4" fill="#BE96D7"/>
<rect x="36" y="3" width="9" height="4" fill="#BE96D7"/>
<rect x="48" y="9" width="3" height="9" fill="#BE96D7"/>
<rect x="42" y="21" width="3" height="9" fill="#BE96D7"/>
<rect x="45" y="21" width="3" height="6" fill="#BE96D7"/>
<rect x="24" y="12" width="3" height="6" fill="#BE96D7"/>
<rect x="27" y="6" width="21" height="18" fill="#BE96D7"/>
<rect x="54" y="18" width="15" height="18" fill="#BE96D7"/>
<rect x="57" y="12" width="18" height="18" fill="#BE96D7"/>
<rect x="63" y="42" width="18" height="18" fill="#BE96D7"/>
<rect x="81" y="42" width="3" height="15" fill="#BE96D7"/>
<rect x="60" y="48" width="3" height="7" fill="#BE96D7"/>
<rect x="63" y="60" width="12" height="3" fill="#BE96D7"/>
<rect x="66" y="39" width="15" height="3" fill="#BE96D7"/>
<rect x="60" y="9" width="12" height="3" fill="#BE96D7"/>
<rect x="51" y="24" width="3" height="12" fill="#BE96D7"/>
<rect x="75" y="15" width="3" height="12" fill="#BE96D7"/>
<rect x="69" y="21" width="3" height="12" fill="#BE96D7"/>
<rect x="54" y="27" width="9" height="12" fill="#BE96D7"/>
<rect x="12" y="30" width="9" height="12" fill="#BE96D7"/>
<rect x="24" y="42" width="9" height="12" fill="#BE96D7"/>
<rect x="21" y="45" width="9" height="12" fill="#BE96D7"/>
<rect x="12" y="51" width="37" height="15" fill="#BE96D7"/>
<rect x="15" y="57" width="43" height="15" fill="#BE96D7"/>
<rect x="39" y="80" width="18" height="4" fill="#BE96D7"/>
<rect x="40" y="76" width="18" height="4" fill="#BE96D7"/>
<rect x="6" y="57" width="6" height="9" fill="#BE96D7"/>
</svg>
